<svg width="230" height="44" viewBox="0 0 230 44" fill="none" xmlns="http://www.w3.org/2000/svg">
<path d="M48.2286 3.61861C44.52 1.92419 40.5815 0.689257 36.4704 0C35.9529 0.890301 35.3779 2.09649 34.9754 3.04423C30.6028 2.4124 26.2617 2.4124 21.9494 3.04423C21.5469 2.09649 20.9432 0.890301 20.4544 0C16.3147 0.689257 12.3761 1.92419 8.69344 3.61861C1.24757 14.5893 -0.764843 25.3015 0.241359 35.8702C5.18611 39.46 9.95843 41.6428 14.6473 43.0788C15.7973 41.5279 16.8322 39.8621 17.7234 38.1104C16.0273 37.4785 14.4173 36.7031 12.8649 35.784C13.2674 35.497 13.6699 35.181 14.0436 34.8651C23.4157 39.1443 33.5668 39.1443 42.8238 34.8651C43.2263 35.181 43.6 35.497 44.0025 35.784C42.45 36.7031 40.8402 37.4785 39.144 38.1104C40.0352 39.8621 41.0702 41.5279 42.22 43.0788C46.9061 41.6428 51.7072 39.46 56.626 35.8702C57.8621 23.6359 54.6682 13.0099 48.2286 3.61861ZM19.0171 29.351C16.1997 29.351 13.8998 26.795 13.8998 23.6647C13.8998 20.5343 16.1422 17.9782 19.0171 17.9782C21.8632 17.9782 24.1917 20.5343 24.1342 23.6647C24.1342 26.795 21.8632 29.351 19.0171 29.351ZM37.9079 29.351C35.0904 29.351 32.7876 26.795 32.7876 23.6647C32.7876 20.5343 35.0329 17.9782 37.9079 17.9782C40.754 17.9782 43.0825 20.5343 43.025 23.6647C43.025 26.795 40.7827 29.351 37.9079 29.351Z" fill="white"/>
<path d="M76.5486 9.0166H88.7698C91.7021 9.0166 94.2032 9.47604 96.2444 10.3951C98.2855 11.3142 99.8092 12.5779 100.815 14.2148C101.822 15.8518 102.339 17.7185 102.339 19.8438C102.339 21.9115 101.822 23.7783 100.758 25.4727C99.6942 27.1385 98.0844 28.4881 95.9282 29.4646C93.7721 30.4411 91.0984 30.9294 87.9073 30.9294H76.5486V9.0166ZM87.7636 25.3578C89.7471 25.3578 91.2709 24.8695 92.3346 23.8645C93.3984 22.888 93.9446 21.5094 93.9446 19.8151C93.9446 18.2354 93.4559 16.9717 92.5071 16.0241C91.5584 15.0764 90.1211 14.5881 88.1948 14.5881H84.3712V25.3578H87.7636Z" fill="white"/>
<path d="M121.374 30.9023C119.677 30.4715 118.154 29.8396 116.803 28.978V23.7798C117.838 24.584 119.189 25.2158 120.914 25.7328C122.638 26.2498 124.306 26.5082 125.916 26.5082C126.663 26.5082 127.238 26.4221 127.612 26.221C127.986 26.02 128.187 25.7902 128.187 25.503C128.187 25.1871 128.072 24.9286 127.871 24.7276C127.669 24.5265 127.267 24.3542 126.663 24.1819L122.897 23.3492C120.741 22.8609 119.217 22.1429 118.297 21.2813C117.378 20.4197 116.946 19.2423 116.946 17.8063C116.946 16.6 117.349 15.5375 118.125 14.6472C118.93 13.7569 120.051 13.0676 121.517 12.5793C122.983 12.0913 124.68 11.8328 126.663 11.8328C128.417 11.8328 130.027 12.0051 131.493 12.4072C132.959 12.7804 134.167 13.2686 135.115 13.843V18.7541C134.138 18.1796 132.988 17.7201 131.723 17.3755C130.429 17.0308 129.107 16.8585 127.756 16.8585C125.801 16.8585 124.823 17.2031 124.823 17.8637C124.823 18.1796 124.967 18.4094 125.283 18.5817C125.6 18.7541 126.146 18.8977 126.951 19.07L130.084 19.6444C132.126 19.9889 133.649 20.6207 134.655 21.511C135.662 22.4014 136.15 23.6936 136.15 25.4456C136.15 27.3411 135.317 28.8631 133.649 29.9545C131.982 31.0746 129.624 31.6201 126.577 31.6201C124.795 31.5627 123.07 31.3329 121.374 30.9023Z" fill="white"/>
<path d="M143.915 30.2424C142.133 29.352 140.753 28.1747 139.862 26.6812C138.942 25.1877 138.51 23.4934 138.51 21.5979C138.51 19.7312 138.97 18.0367 139.919 16.5721C140.868 15.0786 142.248 13.9298 144.059 13.0684C145.87 12.2355 148.055 11.8047 150.585 11.8047C153.718 11.8047 156.306 12.4653 158.376 13.7862V19.5014C157.657 19.0132 156.795 18.5824 155.817 18.2952C154.84 17.9792 153.805 17.8356 152.712 17.8356C150.757 17.8356 149.263 18.1803 148.141 18.8983C147.049 19.6163 146.503 20.5354 146.503 21.684C146.503 22.8041 147.02 23.7232 148.113 24.4412C149.176 25.159 150.729 25.5324 152.741 25.5324C153.776 25.5324 154.811 25.3888 155.817 25.0729C156.823 24.7569 157.715 24.4125 158.433 23.9529V29.4956C156.133 30.8742 153.46 31.5635 150.441 31.5635C147.883 31.5635 145.726 31.104 143.915 30.2424Z" fill="white"/>
<path d="M166.572 30.2424C164.761 29.352 163.381 28.1747 162.432 26.6525C161.484 25.1303 160.995 23.436 160.995 21.5404C160.995 19.6738 161.484 17.9792 162.432 16.5147C163.381 15.0499 164.761 13.9011 166.543 13.0684C168.326 12.2355 170.482 11.8047 172.957 11.8047C175.43 11.8047 177.586 12.2068 179.368 13.0684C181.15 13.9011 182.53 15.0499 183.479 16.5147C184.428 17.9792 184.888 19.645 184.888 21.5404C184.888 23.4073 184.428 25.1303 183.479 26.6525C182.53 28.1747 181.179 29.3808 179.368 30.2424C177.557 31.104 175.43 31.5635 172.957 31.5635C170.51 31.5635 168.383 31.104 166.572 30.2424ZM176.091 24.6995C176.838 23.9529 177.241 22.919 177.241 21.684C177.241 20.4205 176.867 19.444 176.091 18.6973C175.315 17.9505 174.28 17.5772 172.986 17.5772C171.635 17.5772 170.597 17.9505 169.821 18.6973C169.073 19.444 168.671 20.4205 168.671 21.684C168.671 22.9477 169.044 23.9529 169.821 24.6995C170.597 25.4749 171.635 25.8483 172.986 25.8483C174.28 25.8196 175.343 25.4462 176.091 24.6995Z" fill="white"/>
<path d="M204.121 12.9524V19.7015C203.316 19.1845 202.281 18.9261 201.016 18.9261C199.349 18.9261 198.054 19.443 197.164 20.4481C196.272 21.4533 195.812 23.0329 195.812 25.1581V30.902H188.136V12.6364H195.669V18.4665C196.071 16.3412 196.761 14.7618 197.681 13.7565C198.601 12.7513 199.809 12.2058 201.274 12.2058C202.367 12.2058 203.316 12.4643 204.121 12.9524Z" fill="white"/>
<path d="M230 8.38574V30.9302H222.325V26.8234C221.663 28.3743 220.685 29.5518 219.363 30.3558C218.038 31.16 216.398 31.5621 214.443 31.5621C212.718 31.5621 211.196 31.1313 209.901 30.2984C208.608 29.4657 207.603 28.2881 206.913 26.8234C206.223 25.3301 205.878 23.6643 205.878 21.8264C205.848 19.9021 206.223 18.179 206.998 16.6568C207.746 15.1348 208.838 13.9573 210.218 13.0957C211.598 12.2341 213.178 11.8033 214.961 11.8033C218.613 11.8033 221.06 13.3829 222.325 16.5707V8.38574H230ZM221.175 24.5546C221.95 23.8079 222.353 22.8027 222.353 21.5966C222.353 20.4191 221.98 19.4713 221.203 18.7534C220.427 18.0354 219.392 17.6621 218.096 17.6621C216.801 17.6621 215.766 18.0354 214.991 18.7822C214.213 19.5287 213.841 20.4765 213.841 21.6828C213.841 22.8888 214.213 23.8366 214.991 24.5834C215.766 25.3301 216.773 25.7035 218.066 25.7035C219.363 25.7035 220.398 25.3301 221.175 24.5546Z" fill="white"/>
<path d="M109.414 13.7286C111.619 13.7286 113.41 12.1212 113.41 10.1387C113.41 8.15596 111.619 6.54883 109.414 6.54883C107.206 6.54883 105.418 8.15596 105.418 10.1387C105.418 12.1212 107.206 13.7286 109.414 13.7286Z" fill="white"/>
<path d="M113.41 16.1965C110.966 17.259 107.919 17.2877 105.418 16.1965V30.9295H113.41V16.1965Z" fill="white"/>
</svg>
